<?xml version="1.0" encoding="UTF-8" standalone="no"?>
<!DOCTYPE svg PUBLIC "-//W3C//DTD SVG 1.1//EN"
 "http://www.w3.org/Graphics/SVG/1.1/DTD/svg11.dtd">
<!-- Generated by graphviz version 2.40.1 (20161225.0304)
 -->
<!-- Title: G Pages: 1 -->
<svg width="513pt" height="672pt"
 viewBox="0.00 0.00 513.00 672.00" xmlns="http://www.w3.org/2000/svg" xmlns:xlink="http://www.w3.org/1999/xlink">
<g id="graph0" class="graph" transform="scale(1 1) rotate(0) translate(4 668)">
<title>G</title>
<polygon fill="#ffffff" stroke="transparent" points="-4,4 -4,-668 509,-668 509,4 -4,4"/>
<g id="clust1" class="cluster">
<title>cluster_Global</title>
<path fill="none" stroke="#c0c0c0" d="M20,-8C20,-8 485,-8 485,-8 491,-8 497,-14 497,-20 497,-20 497,-644 497,-644 497,-650 491,-656 485,-656 485,-656 20,-656 20,-656 14,-656 8,-650 8,-644 8,-644 8,-20 8,-20 8,-14 14,-8 20,-8"/>
<text text-anchor="middle" x="252.5" y="-643.2" font-family="Times,serif" font-size="11.00" fill="#c0c0c0">Global</text>
</g>
<g id="clust2" class="cluster">
<title>cluster_\GSC</title>
<path fill="none" stroke="#c0c0c0" d="M28,-16C28,-16 477,-16 477,-16 483,-16 489,-22 489,-28 489,-28 489,-616 489,-616 489,-622 483,-628 477,-628 477,-628 28,-628 28,-628 22,-628 16,-622 16,-616 16,-616 16,-28 16,-28 16,-22 22,-16 28,-16"/>
<text text-anchor="middle" x="252.5" y="-615.2" font-family="Times,serif" font-size="11.00" fill="#c0c0c0">GSC</text>
</g>
<!-- \\GSC\\RSSPresenter -->
<g id="node1" class="node">
<title>\\GSC\\RSSPresenter</title>
<polygon fill="none" stroke="#000000" points="471,-384 373,-384 373,-348 471,-348 471,-384"/>
<text text-anchor="middle" x="422" y="-363.2" font-family="Courier,monospace" font-size="11.00" fill="#000000">RSSPresenter</text>
</g>
<!-- \\GSC\\APresenter -->
<g id="node7" class="node">
<title>\\GSC\\APresenter</title>
<polygon fill="none" stroke="#000000" points="277.5,-438 193.5,-438 193.5,-402 277.5,-402 277.5,-438"/>
<text text-anchor="start" x="201.5" y="-423.2" font-family="Courier,monospace" font-size="11.00" fill="#000000">«abstract»</text>
<text text-anchor="start" x="201.5" y="-411.2" font-family="Courier,monospace" font-size="11.00" fill="#000000">APresenter</text>
</g>
<!-- \\GSC\\RSSPresenter&#45;&gt;\\GSC\\APresenter -->
<g id="edge1" class="edge">
<title>\\GSC\\RSSPresenter&#45;&gt;\\GSC\\APresenter</title>
<path fill="none" stroke="#000000" d="M372.9993,-380.1879C346.6825,-387.8078 314.2445,-397.2 287.4853,-404.948"/>
<polygon fill="none" stroke="#000000" points="286.1643,-401.6866 277.5322,-407.8298 288.1112,-408.4104 286.1643,-401.6866"/>
</g>
<!-- \\GSC\\ApiPresenter -->
<g id="node2" class="node">
<title>\\GSC\\ApiPresenter</title>
<polygon fill="none" stroke="#000000" points="471,-276 373,-276 373,-240 471,-240 471,-276"/>
<text text-anchor="middle" x="422" y="-255.2" font-family="Courier,monospace" font-size="11.00" fill="#000000">ApiPresenter</text>
</g>
<!-- \\GSC\\ApiPresenter&#45;&gt;\\GSC\\APresenter -->
<g id="edge2" class="edge">
<title>\\GSC\\ApiPresenter&#45;&gt;\\GSC\\APresenter</title>
<path fill="none" stroke="#000000" d="M377.4589,-276.1066C372.4184,-278.8129 367.4873,-281.7858 363,-285 319.3476,-316.2674 278.5259,-363.9947 255.3298,-393.528"/>
<polygon fill="none" stroke="#000000" points="252.3491,-391.6605 248.9901,-401.7087 257.8822,-395.9484 252.3491,-391.6605"/>
</g>
<!-- \\GSC\\LoginPresenter -->
<g id="node3" class="node">
<title>\\GSC\\LoginPresenter</title>
<polygon fill="none" stroke="#000000" points="477.5,-222 366.5,-222 366.5,-186 477.5,-186 477.5,-222"/>
<text text-anchor="middle" x="422" y="-201.2" font-family="Courier,monospace" font-size="11.00" fill="#000000">LoginPresenter</text>
</g>
<!-- \\GSC\\LoginPresenter&#45;&gt;\\GSC\\APresenter -->
<g id="edge3" class="edge">
<title>\\GSC\\LoginPresenter&#45;&gt;\\GSC\\APresenter</title>
<path fill="none" stroke="#000000" d="M375.708,-222.1095C371.1966,-224.7618 366.8664,-227.7218 363,-231 308.3348,-277.3483 267.2137,-352.685 247.8251,-392.8155"/>
<polygon fill="none" stroke="#000000" points="244.5978,-391.4527 243.477,-401.9881 250.9232,-394.4511 244.5978,-391.4527"/>
</g>
<!-- \\GSC\\LogoutPresenter -->
<g id="node4" class="node">
<title>\\GSC\\LogoutPresenter</title>
<polygon fill="none" stroke="#000000" points="481,-600 363,-600 363,-564 481,-564 481,-600"/>
<text text-anchor="middle" x="422" y="-579.2" font-family="Courier,monospace" font-size="11.00" fill="#000000">LogoutPresenter</text>
</g>
<!-- \\GSC\\LogoutPresenter&#45;&gt;\\GSC\\APresenter -->
<g id="edge4" class="edge">
<title>\\GSC\\LogoutPresenter&#45;&gt;\\GSC\\APresenter</title>
<path fill="none" stroke="#000000" d="M377.4589,-563.8934C372.4184,-561.1871 367.4873,-558.2142 363,-555 319.3476,-523.7326 278.5259,-476.0053 255.3298,-446.472"/>
<polygon fill="none" stroke="#000000" points="257.8822,-444.0516 248.9901,-438.2913 252.3491,-448.3395 257.8822,-444.0516"/>
</g>
<!-- \\GSC\\StringFilters -->
<g id="node5" class="node">
<title>\\GSC\\StringFilters</title>
<polygon fill="none" stroke="#000000" points="474,-60 370,-60 370,-24 474,-24 474,-60"/>
<text text-anchor="middle" x="422" y="-39.2" font-family="Courier,monospace" font-size="11.00" fill="#000000">StringFilters</text>
</g>
<!-- \\GSC\\IStringFilters -->
<g id="node13" class="node">
<title>\\GSC\\IStringFilters</title>
<polygon fill="none" stroke="#000000" points="291,-60 180,-60 180,-24 291,-24 291,-60"/>
<text text-anchor="middle" x="235.5" y="-39.2" font-family="Courier,monospace" font-size="11.00" fill="#000000">IStringFilters</text>
</g>
<!-- \\GSC\\StringFilters&#45;&gt;\\GSC\\IStringFilters -->
<g id="edge5" class="edge">
<title>\\GSC\\StringFilters&#45;&gt;\\GSC\\IStringFilters</title>
<path fill="none" stroke="#000000" stroke-dasharray="1,5" d="M369.553,-42C348.3446,-42 323.6285,-42 301.237,-42"/>
<polygon fill="none" stroke="#000000" points="301.1336,-38.5001 291.1335,-42 301.1335,-45.5001 301.1336,-38.5001"/>
</g>
<!-- \\GSC\\CiTester -->
<g id="node6" class="node">
<title>\\GSC\\CiTester</title>
<polygon fill="none" stroke="#000000" points="457.5,-330 386.5,-330 386.5,-294 457.5,-294 457.5,-330"/>
<text text-anchor="middle" x="422" y="-309.2" font-family="Courier,monospace" font-size="11.00" fill="#000000">CiTester</text>
</g>
<!-- \\GSC\\IPresenter -->
<g id="node14" class="node">
<title>\\GSC\\IPresenter</title>
<polygon fill="none" stroke="#000000" points="108,-438 24,-438 24,-402 108,-402 108,-438"/>
<text text-anchor="middle" x="66" y="-417.2" font-family="Courier,monospace" font-size="11.00" fill="#000000">IPresenter</text>
</g>
<!-- \\GSC\\APresenter&#45;&gt;\\GSC\\IPresenter -->
<g id="edge6" class="edge">
<title>\\GSC\\APresenter&#45;&gt;\\GSC\\IPresenter</title>
<path fill="none" stroke="#000000" stroke-dasharray="1,5" d="M193.1652,-420C170.4285,-420 142.2041,-420 118.1259,-420"/>
<polygon fill="none" stroke="#000000" points="118.0886,-416.5001 108.0886,-420 118.0885,-423.5001 118.0886,-416.5001"/>
</g>
<!-- \\GSC\\CorePresenter -->
<g id="node8" class="node">
<title>\\GSC\\CorePresenter</title>
<polygon fill="none" stroke="#000000" points="474,-546 370,-546 370,-510 474,-510 474,-546"/>
<text text-anchor="middle" x="422" y="-525.2" font-family="Courier,monospace" font-size="11.00" fill="#000000">CorePresenter</text>
</g>
<!-- \\GSC\\CorePresenter&#45;&gt;\\GSC\\APresenter -->
<g id="edge7" class="edge">
<title>\\GSC\\CorePresenter&#45;&gt;\\GSC\\APresenter</title>
<path fill="none" stroke="#000000" d="M380.7007,-509.9751C374.697,-507.1031 368.6423,-504.0646 363,-501 330.6357,-483.4211 295.4089,-460.7519 270.2007,-443.868"/>
<polygon fill="none" stroke="#000000" points="271.972,-440.8411 261.7233,-438.1551 268.06,-446.646 271.972,-440.8411"/>
</g>
<!-- \\GSC\\MiniPresenter -->
<g id="node9" class="node">
<title>\\GSC\\MiniPresenter</title>
<polygon fill="none" stroke="#000000" points="474,-492 370,-492 370,-456 474,-456 474,-492"/>
<text text-anchor="middle" x="422" y="-471.2" font-family="Courier,monospace" font-size="11.00" fill="#000000">MiniPresenter</text>
</g>
<!-- \\GSC\\MiniPresenter&#45;&gt;\\GSC\\APresenter -->
<g id="edge8" class="edge">
<title>\\GSC\\MiniPresenter&#45;&gt;\\GSC\\APresenter</title>
<path fill="none" stroke="#000000" d="M369.553,-458.8143C343.8726,-451.3787 313.0493,-442.454 287.4374,-435.0382"/>
<polygon fill="none" stroke="#000000" points="288.1166,-431.5911 277.5377,-432.1718 286.1697,-438.315 288.1166,-431.5911"/>
</g>
<!-- \\GSC\\Doctor -->
<g id="node10" class="node">
<title>\\GSC\\Doctor</title>
<polygon fill="none" stroke="#000000" points="450.5,-168 393.5,-168 393.5,-132 450.5,-132 450.5,-168"/>
<text text-anchor="middle" x="422" y="-147.2" font-family="Courier,monospace" font-size="11.00" fill="#000000">Doctor</text>
</g>
<!-- \\GSC\\UnitTester -->
<g id="node11" class="node">
<title>\\GSC\\UnitTester</title>
<polygon fill="none" stroke="#000000" points="464,-114 380,-114 380,-78 464,-78 464,-114"/>
<text text-anchor="middle" x="422" y="-93.2" font-family="Courier,monospace" font-size="11.00" fill="#000000">UnitTester</text>
</g>
<!-- \\GSC\\CliPresenter -->
<g id="node12" class="node">
<title>\\GSC\\CliPresenter</title>
<polygon fill="none" stroke="#000000" points="471,-438 373,-438 373,-402 471,-402 471,-438"/>
<text text-anchor="middle" x="422" y="-417.2" font-family="Courier,monospace" font-size="11.00" fill="#000000">CliPresenter</text>
</g>
<!-- \\GSC\\CliPresenter&#45;&gt;\\GSC\\APresenter -->
<g id="edge9" class="edge">
<title>\\GSC\\CliPresenter&#45;&gt;\\GSC\\APresenter</title>
<path fill="none" stroke="#000000" d="M372.9993,-420C346.7984,-420 314.5302,-420 287.8393,-420"/>
<polygon fill="none" stroke="#000000" points="287.5323,-416.5001 277.5322,-420 287.5322,-423.5001 287.5323,-416.5001"/>
</g>
</g>
</svg>
