<?xml version="1.0" encoding="UTF-8" standalone="no"?>
<!DOCTYPE svg PUBLIC "-//W3C//DTD SVG 1.1//EN"
 "http://www.w3.org/Graphics/SVG/1.1/DTD/svg11.dtd">
<!-- Generated by graphviz version 2.40.1 (20161225.0304)
 -->
<!-- Title: G Pages: 1 -->
<svg width="866pt" height="1798pt"
 viewBox="0.00 0.00 866.28 1798.00" xmlns="http://www.w3.org/2000/svg" xmlns:xlink="http://www.w3.org/1999/xlink">
<g id="graph0" class="graph" transform="scale(1 1) rotate(0) translate(4 1794)">
<title>G</title>
<polygon fill="#ffffff" stroke="transparent" points="-4,4 -4,-1794 862.2814,-1794 862.2814,4 -4,4"/>
<g id="clust1" class="cluster">
<title>cluster_Global</title>
<path fill="none" stroke="#c0c0c0" d="M20,-8C20,-8 838.2814,-8 838.2814,-8 844.2814,-8 850.2814,-14 850.2814,-20 850.2814,-20 850.2814,-1770 850.2814,-1770 850.2814,-1776 844.2814,-1782 838.2814,-1782 838.2814,-1782 20,-1782 20,-1782 14,-1782 8,-1776 8,-1770 8,-1770 8,-20 8,-20 8,-14 14,-8 20,-8"/>
<text text-anchor="middle" x="429.1407" y="-1769.2" font-family="Times,serif" font-size="11.00" fill="#c0c0c0">Global</text>
</g>
<g id="clust2" class="cluster">
<title>cluster_\GSC</title>
<path fill="none" stroke="#c0c0c0" d="M28,-1142C28,-1142 706.7814,-1142 706.7814,-1142 712.7814,-1142 718.7814,-1148 718.7814,-1154 718.7814,-1154 718.7814,-1742 718.7814,-1742 718.7814,-1748 712.7814,-1754 706.7814,-1754 706.7814,-1754 28,-1754 28,-1754 22,-1754 16,-1748 16,-1742 16,-1742 16,-1154 16,-1154 16,-1148 22,-1142 28,-1142"/>
<text text-anchor="middle" x="367.3907" y="-1741.2" font-family="Times,serif" font-size="11.00" fill="#c0c0c0">GSC</text>
</g>
<!-- \\GSC\\RSSPresenter -->
<g id="node1" class="node">
<title>\\GSC\\RSSPresenter</title>
<polygon fill="none" stroke="#000000" points="700.7814,-1510 602.7814,-1510 602.7814,-1474 700.7814,-1474 700.7814,-1510"/>
<text text-anchor="middle" x="651.7814" y="-1489.2" font-family="Courier,monospace" font-size="11.00" fill="#000000">RSSPresenter</text>
</g>
<!-- \\GSC\\APresenter -->
<g id="node7" class="node">
<title>\\GSC\\APresenter</title>
<polygon fill="none" stroke="#000000" points="326.6407,-1564 242.6407,-1564 242.6407,-1528 326.6407,-1528 326.6407,-1564"/>
<text text-anchor="start" x="250.6407" y="-1549.2" font-family="Courier,monospace" font-size="11.00" fill="#000000">«abstract»</text>
<text text-anchor="start" x="250.6407" y="-1537.2" font-family="Courier,monospace" font-size="11.00" fill="#000000">APresenter</text>
</g>
<!-- \\GSC\\RSSPresenter&#45;&gt;\\GSC\\APresenter -->
<g id="edge2" class="edge">
<title>\\GSC\\RSSPresenter&#45;&gt;\\GSC\\APresenter</title>
<path fill="none" stroke="#000000" d="M602.4217,-1498.8457C563.9508,-1504.2176 509.1995,-1511.9422 461.2814,-1519 419.3799,-1525.1716 371.9329,-1532.4395 336.7721,-1537.8792"/>
<polygon fill="none" stroke="#000000" points="336.0823,-1534.4442 326.736,-1539.4339 337.1539,-1541.3617 336.0823,-1534.4442"/>
</g>
<!-- \\GSC\\ApiPresenter -->
<g id="node2" class="node">
<title>\\GSC\\ApiPresenter</title>
<polygon fill="none" stroke="#000000" points="700.7814,-1402 602.7814,-1402 602.7814,-1366 700.7814,-1366 700.7814,-1402"/>
<text text-anchor="middle" x="651.7814" y="-1381.2" font-family="Courier,monospace" font-size="11.00" fill="#000000">ApiPresenter</text>
</g>
<!-- \\GSC\\ApiPresenter&#45;&gt;\\GSC\\APresenter -->
<g id="edge4" class="edge">
<title>\\GSC\\ApiPresenter&#45;&gt;\\GSC\\APresenter</title>
<path fill="none" stroke="#000000" d="M602.6186,-1384.1806C563.0435,-1385.9008 506.7256,-1391.9641 461.2814,-1411 399.6497,-1436.8167 340.5941,-1489.4543 308.8158,-1520.8308"/>
<polygon fill="none" stroke="#000000" points="306.3029,-1518.394 301.7116,-1527.9423 311.2552,-1523.3412 306.3029,-1518.394"/>
</g>
<!-- \\GSC\\LoginPresenter -->
<g id="node3" class="node">
<title>\\GSC\\LoginPresenter</title>
<polygon fill="none" stroke="#000000" points="707.2814,-1348 596.2814,-1348 596.2814,-1312 707.2814,-1312 707.2814,-1348"/>
<text text-anchor="middle" x="651.7814" y="-1327.2" font-family="Courier,monospace" font-size="11.00" fill="#000000">LoginPresenter</text>
</g>
<!-- \\GSC\\LoginPresenter&#45;&gt;\\GSC\\APresenter -->
<g id="edge9" class="edge">
<title>\\GSC\\LoginPresenter&#45;&gt;\\GSC\\APresenter</title>
<path fill="none" stroke="#000000" d="M595.8609,-1328.2945C556.2256,-1329.3119 502.9099,-1335.3282 461.2814,-1357 387.6103,-1395.3531 328.1988,-1476.9227 300.8896,-1519.2566"/>
<polygon fill="none" stroke="#000000" points="297.8025,-1517.5893 295.4037,-1527.9091 303.7144,-1521.3377 297.8025,-1517.5893"/>
</g>
<!-- \\GSC\\LogoutPresenter -->
<g id="node4" class="node">
<title>\\GSC\\LogoutPresenter</title>
<polygon fill="none" stroke="#000000" points="710.7814,-1726 592.7814,-1726 592.7814,-1690 710.7814,-1690 710.7814,-1726"/>
<text text-anchor="middle" x="651.7814" y="-1705.2" font-family="Courier,monospace" font-size="11.00" fill="#000000">LogoutPresenter</text>
</g>
<!-- \\GSC\\LogoutPresenter&#45;&gt;\\GSC\\APresenter -->
<g id="edge11" class="edge">
<title>\\GSC\\LogoutPresenter&#45;&gt;\\GSC\\APresenter</title>
<path fill="none" stroke="#000000" d="M592.642,-1707.3087C553.9519,-1705.0268 503.0285,-1698.4873 461.2814,-1681 399.6497,-1655.1833 340.5941,-1602.5457 308.8158,-1571.1692"/>
<polygon fill="none" stroke="#000000" points="311.2552,-1568.6588 301.7116,-1564.0577 306.3029,-1573.606 311.2552,-1568.6588"/>
</g>
<!-- \\GSC\\StringFilters -->
<g id="node5" class="node">
<title>\\GSC\\StringFilters</title>
<polygon fill="none" stroke="#000000" points="703.7814,-1186 599.7814,-1186 599.7814,-1150 703.7814,-1150 703.7814,-1186"/>
<text text-anchor="middle" x="651.7814" y="-1165.2" font-family="Courier,monospace" font-size="11.00" fill="#000000">StringFilters</text>
</g>
<!-- \\GSC\\IStringFilters -->
<g id="node13" class="node">
<title>\\GSC\\IStringFilters</title>
<polygon fill="none" stroke="#000000" points="340.1407,-1186 229.1407,-1186 229.1407,-1150 340.1407,-1150 340.1407,-1186"/>
<text text-anchor="middle" x="284.6407" y="-1165.2" font-family="Courier,monospace" font-size="11.00" fill="#000000">IStringFilters</text>
</g>
<!-- \\GSC\\StringFilters&#45;&gt;\\GSC\\IStringFilters -->
<g id="edge12" class="edge">
<title>\\GSC\\StringFilters&#45;&gt;\\GSC\\IStringFilters</title>
<path fill="none" stroke="#000000" stroke-dasharray="1,5" d="M599.569,-1168C534.0933,-1168 421.7971,-1168 350.4904,-1168"/>
<polygon fill="none" stroke="#000000" points="350.2776,-1164.5001 340.2776,-1168 350.2776,-1171.5001 350.2776,-1164.5001"/>
</g>
<!-- \\GSC\\CiTester -->
<g id="node6" class="node">
<title>\\GSC\\CiTester</title>
<polygon fill="none" stroke="#000000" points="687.2814,-1456 616.2814,-1456 616.2814,-1420 687.2814,-1420 687.2814,-1456"/>
<text text-anchor="middle" x="651.7814" y="-1435.2" font-family="Courier,monospace" font-size="11.00" fill="#000000">CiTester</text>
</g>
<!-- \\GSC\\IPresenter -->
<g id="node14" class="node">
<title>\\GSC\\IPresenter</title>
<polygon fill="none" stroke="#000000" points="108,-1564 24,-1564 24,-1528 108,-1528 108,-1564"/>
<text text-anchor="middle" x="66" y="-1543.2" font-family="Courier,monospace" font-size="11.00" fill="#000000">IPresenter</text>
</g>
<!-- \\GSC\\APresenter&#45;&gt;\\GSC\\IPresenter -->
<g id="edge13" class="edge">
<title>\\GSC\\APresenter&#45;&gt;\\GSC\\IPresenter</title>
<path fill="none" stroke="#000000" stroke-dasharray="1,5" d="M242.4846,-1546C207.0955,-1546 156.3748,-1546 118.3818,-1546"/>
<polygon fill="none" stroke="#000000" points="118.0267,-1542.5001 108.0267,-1546 118.0267,-1549.5001 118.0267,-1542.5001"/>
</g>
<!-- \\GSC\\CorePresenter -->
<g id="node8" class="node">
<title>\\GSC\\CorePresenter</title>
<polygon fill="none" stroke="#000000" points="703.7814,-1672 599.7814,-1672 599.7814,-1636 703.7814,-1636 703.7814,-1672"/>
<text text-anchor="middle" x="651.7814" y="-1651.2" font-family="Courier,monospace" font-size="11.00" fill="#000000">CorePresenter</text>
</g>
<!-- \\GSC\\CorePresenter&#45;&gt;\\GSC\\APresenter -->
<g id="edge16" class="edge">
<title>\\GSC\\CorePresenter&#45;&gt;\\GSC\\APresenter</title>
<path fill="none" stroke="#000000" d="M599.5818,-1650.6862C560.8084,-1647.248 506.9563,-1640.4 461.2814,-1627 412.6937,-1612.7454 360.3622,-1587.3634 325.3776,-1568.8013"/>
<polygon fill="none" stroke="#000000" points="326.896,-1565.6441 316.4293,-1564.0013 323.587,-1571.8127 326.896,-1565.6441"/>
</g>
<!-- \\GSC\\MiniPresenter -->
<g id="node9" class="node">
<title>\\GSC\\MiniPresenter</title>
<polygon fill="none" stroke="#000000" points="703.7814,-1618 599.7814,-1618 599.7814,-1582 703.7814,-1582 703.7814,-1618"/>
<text text-anchor="middle" x="651.7814" y="-1597.2" font-family="Courier,monospace" font-size="11.00" fill="#000000">MiniPresenter</text>
</g>
<!-- \\GSC\\MiniPresenter&#45;&gt;\\GSC\\APresenter -->
<g id="edge20" class="edge">
<title>\\GSC\\MiniPresenter&#45;&gt;\\GSC\\APresenter</title>
<path fill="none" stroke="#000000" d="M599.6078,-1592.7612C561.3116,-1587.4099 508.0428,-1579.8874 461.2814,-1573 419.3799,-1566.8284 371.9329,-1559.5605 336.7721,-1554.1208"/>
<polygon fill="none" stroke="#000000" points="337.1539,-1550.6383 326.736,-1552.5661 336.0823,-1557.5558 337.1539,-1550.6383"/>
</g>
<!-- \\GSC\\Doctor -->
<g id="node10" class="node">
<title>\\GSC\\Doctor</title>
<polygon fill="none" stroke="#000000" points="680.2814,-1294 623.2814,-1294 623.2814,-1258 680.2814,-1258 680.2814,-1294"/>
<text text-anchor="middle" x="651.7814" y="-1273.2" font-family="Courier,monospace" font-size="11.00" fill="#000000">Doctor</text>
</g>
<!-- \\GSC\\UnitTester -->
<g id="node11" class="node">
<title>\\GSC\\UnitTester</title>
<polygon fill="none" stroke="#000000" points="693.7814,-1240 609.7814,-1240 609.7814,-1204 693.7814,-1204 693.7814,-1240"/>
<text text-anchor="middle" x="651.7814" y="-1219.2" font-family="Courier,monospace" font-size="11.00" fill="#000000">UnitTester</text>
</g>
<!-- \\GSC\\CliPresenter -->
<g id="node12" class="node">
<title>\\GSC\\CliPresenter</title>
<polygon fill="none" stroke="#000000" points="700.7814,-1564 602.7814,-1564 602.7814,-1528 700.7814,-1528 700.7814,-1564"/>
<text text-anchor="middle" x="651.7814" y="-1543.2" font-family="Courier,monospace" font-size="11.00" fill="#000000">CliPresenter</text>
</g>
<!-- \\GSC\\CliPresenter&#45;&gt;\\GSC\\APresenter -->
<g id="edge29" class="edge">
<title>\\GSC\\CliPresenter&#45;&gt;\\GSC\\APresenter</title>
<path fill="none" stroke="#000000" d="M602.6482,-1546C533.3682,-1546 407.5371,-1546 336.7028,-1546"/>
<polygon fill="none" stroke="#000000" points="336.6642,-1542.5001 326.6642,-1546 336.6641,-1549.5001 336.6642,-1542.5001"/>
</g>
<!-- \\__mini_TESSERACT_362df0744fbc637bba1239ed396a7d41 -->
<g id="node15" class="node">
<title>\\__mini_TESSERACT_362df0744fbc637bba1239ed396a7d41</title>
<polygon fill="none" stroke="#000000" points="825.2814,-1132 478.2814,-1132 478.2814,-1096 825.2814,-1096 825.2814,-1132"/>
<text text-anchor="middle" x="651.7814" y="-1111.2" font-family="Courier,monospace" font-size="11.00" fill="#000000">__mini_TESSERACT_362df0744fbc637bba1239ed396a7d41</text>
</g>
<!-- Mustache_Template -->
<g id="node36" class="node">
<title>Mustache_Template</title>
<ellipse fill="none" stroke="#000000" cx="284.6407" cy="-574" rx="104.7816" ry="18"/>
<text text-anchor="middle" x="284.6407" y="-570.3" font-family="Times,serif" font-size="14.00" fill="#c0c0c0">Mustache_Template</text>
</g>
<!-- \\__mini_TESSERACT_362df0744fbc637bba1239ed396a7d41&#45;&gt;Mustache_Template -->
<g id="edge1" class="edge">
<title>\\__mini_TESSERACT_362df0744fbc637bba1239ed396a7d41&#45;&gt;Mustache_Template</title>
<path fill="none" stroke="#000000" d="M478.1586,-1098.5576C472.2198,-1095.1926 466.5627,-1091.3588 461.2814,-1087 382.5934,-1022.0574 310.5915,-699.6821 290.306,-602.0604"/>
<polygon fill="none" stroke="#000000" points="293.6906,-601.1429 288.2451,-592.0546 286.8345,-602.5551 293.6906,-601.1429"/>
</g>
<!-- \\__localhost_TESSERACT_362df0744fbc637bba1239ed396a7d41 -->
<g id="node16" class="node">
<title>\\__localhost_TESSERACT_362df0744fbc637bba1239ed396a7d41</title>
<polygon fill="none" stroke="#000000" points="842.2814,-1078 461.2814,-1078 461.2814,-1042 842.2814,-1042 842.2814,-1078"/>
<text text-anchor="middle" x="651.7814" y="-1057.2" font-family="Courier,monospace" font-size="11.00" fill="#000000">__localhost_TESSERACT_362df0744fbc637bba1239ed396a7d41</text>
</g>
<!-- \\__localhost_TESSERACT_362df0744fbc637bba1239ed396a7d41&#45;&gt;Mustache_Template -->
<g id="edge3" class="edge">
<title>\\__localhost_TESSERACT_362df0744fbc637bba1239ed396a7d41&#45;&gt;Mustache_Template</title>
<path fill="none" stroke="#000000" d="M474.0191,-1041.8205C469.5921,-1039.1561 465.3329,-1036.2237 461.2814,-1033 320.9258,-921.3195 291.9749,-683.8564 286.1044,-602.2402"/>
<polygon fill="none" stroke="#000000" points="289.5939,-601.9637 285.4453,-592.2149 282.609,-602.4231 289.5939,-601.9637"/>
</g>
<!-- \\__mini_TESSERACT_22595a8d114d3600a47e803954699405 -->
<g id="node17" class="node">
<title>\\__mini_TESSERACT_22595a8d114d3600a47e803954699405</title>
<polygon fill="none" stroke="#000000" points="825.2814,-1024 478.2814,-1024 478.2814,-988 825.2814,-988 825.2814,-1024"/>
<text text-anchor="middle" x="651.7814" y="-1003.2" font-family="Courier,monospace" font-size="11.00" fill="#000000">__mini_TESSERACT_22595a8d114d3600a47e803954699405</text>
</g>
<!-- \\__mini_TESSERACT_22595a8d114d3600a47e803954699405&#45;&gt;Mustache_Template -->
<g id="edge5" class="edge">
<title>\\__mini_TESSERACT_22595a8d114d3600a47e803954699405&#45;&gt;Mustache_Template</title>
<path fill="none" stroke="#000000" d="M478.1459,-989.7788C472.2488,-986.6207 466.5992,-983.0439 461.2814,-979 334.9929,-882.9636 297.4668,-677.748 287.7102,-602.4565"/>
<polygon fill="none" stroke="#000000" points="291.1582,-601.8177 286.465,-592.3191 284.2104,-602.6712 291.1582,-601.8177"/>
</g>
<!-- \\__localhost_TESSERACT_1fd24745fa3797fab1cd8b4391866f70 -->
<g id="node18" class="node">
<title>\\__localhost_TESSERACT_1fd24745fa3797fab1cd8b4391866f70</title>
<polygon fill="none" stroke="#000000" points="842.2814,-970 461.2814,-970 461.2814,-934 842.2814,-934 842.2814,-970"/>
<text text-anchor="middle" x="651.7814" y="-949.2" font-family="Courier,monospace" font-size="11.00" fill="#000000">__localhost_TESSERACT_1fd24745fa3797fab1cd8b4391866f70</text>
</g>
<!-- \\__localhost_TESSERACT_1fd24745fa3797fab1cd8b4391866f70&#45;&gt;Mustache_Template -->
<g id="edge6" class="edge">
<title>\\__localhost_TESSERACT_1fd24745fa3797fab1cd8b4391866f70&#45;&gt;Mustache_Template</title>
<path fill="none" stroke="#000000" d="M475.3094,-933.7622C470.45,-931.1266 465.7586,-928.2144 461.2814,-925 348.7137,-844.1817 303.5712,-670.6226 289.7269,-602.385"/>
<polygon fill="none" stroke="#000000" points="293.1223,-601.5103 287.7682,-592.3679 286.2524,-602.8537 293.1223,-601.5103"/>
</g>
<!-- \\__mini_TESSERACT_ab8c9788e151775fb7c0f90241c3d2f4 -->
<g id="node19" class="node">
<title>\\__mini_TESSERACT_ab8c9788e151775fb7c0f90241c3d2f4</title>
<polygon fill="none" stroke="#000000" points="825.2814,-916 478.2814,-916 478.2814,-880 825.2814,-880 825.2814,-916"/>
<text text-anchor="middle" x="651.7814" y="-895.2" font-family="Courier,monospace" font-size="11.00" fill="#000000">__mini_TESSERACT_ab8c9788e151775fb7c0f90241c3d2f4</text>
</g>
<!-- \\__mini_TESSERACT_ab8c9788e151775fb7c0f90241c3d2f4&#45;&gt;Mustache_Template -->
<g id="edge7" class="edge">
<title>\\__mini_TESSERACT_ab8c9788e151775fb7c0f90241c3d2f4&#45;&gt;Mustache_Template</title>
<path fill="none" stroke="#000000" d="M477.856,-880.4695C472.1115,-877.6624 466.5639,-874.5179 461.2814,-871 361.9204,-804.8285 310.3007,-662.0819 292.237,-601.7838"/>
<polygon fill="none" stroke="#000000" points="295.5954,-600.798 289.4361,-592.1775 288.8752,-602.7574 295.5954,-600.798"/>
</g>
<!-- \\__mini_TESSERACT_20f031974b0aeac8b950496702c2b4ab -->
<g id="node20" class="node">
<title>\\__mini_TESSERACT_20f031974b0aeac8b950496702c2b4ab</title>
<polygon fill="none" stroke="#000000" points="825.2814,-862 478.2814,-862 478.2814,-826 825.2814,-826 825.2814,-862"/>
<text text-anchor="middle" x="651.7814" y="-841.2" font-family="Courier,monospace" font-size="11.00" fill="#000000">__mini_TESSERACT_20f031974b0aeac8b950496702c2b4ab</text>
</g>
<!-- \\__mini_TESSERACT_20f031974b0aeac8b950496702c2b4ab&#45;&gt;Mustache_Template -->
<g id="edge8" class="edge">
<title>\\__mini_TESSERACT_20f031974b0aeac8b950496702c2b4ab&#45;&gt;Mustache_Template</title>
<path fill="none" stroke="#000000" d="M478.2576,-825.8353C472.4008,-823.2057 466.7201,-820.2713 461.2814,-817 374.9964,-765.1005 318.3938,-653.2816 295.7762,-601.4334"/>
<polygon fill="none" stroke="#000000" points="298.9742,-600.0099 291.8278,-592.1881 292.5367,-602.7592 298.9742,-600.0099"/>
</g>
<!-- \\__localhost_TESSERACT_2f2c680e01c6cf17412800ae145e76e3 -->
<g id="node21" class="node">
<title>\\__localhost_TESSERACT_2f2c680e01c6cf17412800ae145e76e3</title>
<polygon fill="none" stroke="#000000" points="842.2814,-808 461.2814,-808 461.2814,-772 842.2814,-772 842.2814,-808"/>
<text text-anchor="middle" x="651.7814" y="-787.2" font-family="Courier,monospace" font-size="11.00" fill="#000000">__localhost_TESSERACT_2f2c680e01c6cf17412800ae145e76e3</text>
</g>
<!-- \\__localhost_TESSERACT_2f2c680e01c6cf17412800ae145e76e3&#45;&gt;Mustache_Template -->
<g id="edge10" class="edge">
<title>\\__localhost_TESSERACT_2f2c680e01c6cf17412800ae145e76e3&#45;&gt;Mustache_Template</title>
<path fill="none" stroke="#000000" d="M481.1221,-771.8874C474.2955,-769.266 467.6516,-766.3163 461.2814,-763 387.6103,-724.6469 328.1988,-643.0773 300.8896,-600.7434"/>
<polygon fill="none" stroke="#000000" points="303.7144,-598.6623 295.4037,-592.0909 297.8025,-602.4107 303.7144,-598.6623"/>
</g>
<!-- \\__localhost_TESSERACT_ef7032084388eed796ad8da65117c79c -->
<g id="node22" class="node">
<title>\\__localhost_TESSERACT_ef7032084388eed796ad8da65117c79c</title>
<polygon fill="none" stroke="#000000" points="842.2814,-754 461.2814,-754 461.2814,-718 842.2814,-718 842.2814,-754"/>
<text text-anchor="middle" x="651.7814" y="-733.2" font-family="Courier,monospace" font-size="11.00" fill="#000000">__localhost_TESSERACT_ef7032084388eed796ad8da65117c79c</text>
</g>
<!-- \\__localhost_TESSERACT_ef7032084388eed796ad8da65117c79c&#45;&gt;Mustache_Template -->
<g id="edge14" class="edge">
<title>\\__localhost_TESSERACT_ef7032084388eed796ad8da65117c79c&#45;&gt;Mustache_Template</title>
<path fill="none" stroke="#000000" d="M486.1753,-717.9045C477.6403,-715.3079 469.2919,-712.3555 461.2814,-709 399.6497,-683.1833 340.5941,-630.5457 308.8158,-599.1692"/>
<polygon fill="none" stroke="#000000" points="311.2552,-596.6588 301.7116,-592.0577 306.3029,-601.606 311.2552,-596.6588"/>
</g>
<!-- \\__mini_TESSERACT_cd18140ec6a97f095f2590d9a45f9671 -->
<g id="node23" class="node">
<title>\\__mini_TESSERACT_cd18140ec6a97f095f2590d9a45f9671</title>
<polygon fill="none" stroke="#000000" points="825.2814,-700 478.2814,-700 478.2814,-664 825.2814,-664 825.2814,-700"/>
<text text-anchor="middle" x="651.7814" y="-679.2" font-family="Courier,monospace" font-size="11.00" fill="#000000">__mini_TESSERACT_cd18140ec6a97f095f2590d9a45f9671</text>
</g>
<!-- \\__mini_TESSERACT_cd18140ec6a97f095f2590d9a45f9671&#45;&gt;Mustache_Template -->
<g id="edge15" class="edge">
<title>\\__mini_TESSERACT_cd18140ec6a97f095f2590d9a45f9671&#45;&gt;Mustache_Template</title>
<path fill="none" stroke="#000000" d="M497.0889,-663.952C484.8811,-661.3524 472.8203,-658.3853 461.2814,-655 412.0993,-640.571 359.0813,-614.7408 324.1015,-596.1232"/>
<polygon fill="none" stroke="#000000" points="325.6363,-592.9746 315.1717,-591.3182 322.3194,-599.1388 325.6363,-592.9746"/>
</g>
<!-- \\__localhost_TESSERACT_22595a8d114d3600a47e803954699405 -->
<g id="node24" class="node">
<title>\\__localhost_TESSERACT_22595a8d114d3600a47e803954699405</title>
<polygon fill="none" stroke="#000000" points="842.2814,-646 461.2814,-646 461.2814,-610 842.2814,-610 842.2814,-646"/>
<text text-anchor="middle" x="651.7814" y="-625.2" font-family="Courier,monospace" font-size="11.00" fill="#000000">__localhost_TESSERACT_22595a8d114d3600a47e803954699405</text>
</g>
<!-- \\__localhost_TESSERACT_22595a8d114d3600a47e803954699405&#45;&gt;Mustache_Template -->
<g id="edge17" class="edge">
<title>\\__localhost_TESSERACT_22595a8d114d3600a47e803954699405&#45;&gt;Mustache_Template</title>
<path fill="none" stroke="#000000" d="M523.408,-610C502.6329,-607.031 481.3574,-603.957 461.2814,-601 432.3166,-596.7338 400.7019,-591.9438 372.3275,-587.5959"/>
<polygon fill="none" stroke="#000000" points="372.851,-584.1353 362.4358,-586.078 371.7892,-591.0544 372.851,-584.1353"/>
</g>
<!-- \\__localhost_TESSERACT_cd18140ec6a97f095f2590d9a45f9671 -->
<g id="node25" class="node">
<title>\\__localhost_TESSERACT_cd18140ec6a97f095f2590d9a45f9671</title>
<polygon fill="none" stroke="#000000" points="842.2814,-592 461.2814,-592 461.2814,-556 842.2814,-556 842.2814,-592"/>
<text text-anchor="middle" x="651.7814" y="-571.2" font-family="Courier,monospace" font-size="11.00" fill="#000000">__localhost_TESSERACT_cd18140ec6a97f095f2590d9a45f9671</text>
</g>
<!-- \\__localhost_TESSERACT_cd18140ec6a97f095f2590d9a45f9671&#45;&gt;Mustache_Template -->
<g id="edge18" class="edge">
<title>\\__localhost_TESSERACT_cd18140ec6a97f095f2590d9a45f9671&#45;&gt;Mustache_Template</title>
<path fill="none" stroke="#000000" d="M461.2211,-574C440.2564,-574 419.4135,-574 399.7881,-574"/>
<polygon fill="none" stroke="#000000" points="399.6421,-570.5001 389.6421,-574 399.6421,-577.5001 399.6421,-570.5001"/>
</g>
<!-- \\__mini_TESSERACT_c49d347b597b4c2f4b20f007c73b23df -->
<g id="node26" class="node">
<title>\\__mini_TESSERACT_c49d347b597b4c2f4b20f007c73b23df</title>
<polygon fill="none" stroke="#000000" points="825.2814,-538 478.2814,-538 478.2814,-502 825.2814,-502 825.2814,-538"/>
<text text-anchor="middle" x="651.7814" y="-517.2" font-family="Courier,monospace" font-size="11.00" fill="#000000">__mini_TESSERACT_c49d347b597b4c2f4b20f007c73b23df</text>
</g>
<!-- \\__mini_TESSERACT_c49d347b597b4c2f4b20f007c73b23df&#45;&gt;Mustache_Template -->
<g id="edge19" class="edge">
<title>\\__mini_TESSERACT_c49d347b597b4c2f4b20f007c73b23df&#45;&gt;Mustache_Template</title>
<path fill="none" stroke="#000000" d="M523.408,-538C502.6329,-540.969 481.3574,-544.043 461.2814,-547 432.3166,-551.2662 400.7019,-556.0562 372.3275,-560.4041"/>
<polygon fill="none" stroke="#000000" points="371.7892,-556.9456 362.4358,-561.922 372.851,-563.8647 371.7892,-556.9456"/>
</g>
<!-- \\__mini_TESSERACT_f47b5442208fc5d704641d67609ad62d -->
<g id="node27" class="node">
<title>\\__mini_TESSERACT_f47b5442208fc5d704641d67609ad62d</title>
<polygon fill="none" stroke="#000000" points="825.2814,-484 478.2814,-484 478.2814,-448 825.2814,-448 825.2814,-484"/>
<text text-anchor="middle" x="651.7814" y="-463.2" font-family="Courier,monospace" font-size="11.00" fill="#000000">__mini_TESSERACT_f47b5442208fc5d704641d67609ad62d</text>
</g>
<!-- \\__mini_TESSERACT_f47b5442208fc5d704641d67609ad62d&#45;&gt;Mustache_Template -->
<g id="edge21" class="edge">
<title>\\__mini_TESSERACT_f47b5442208fc5d704641d67609ad62d&#45;&gt;Mustache_Template</title>
<path fill="none" stroke="#000000" d="M497.0889,-484.048C484.8811,-486.6476 472.8203,-489.6147 461.2814,-493 412.0993,-507.429 359.0813,-533.2592 324.1015,-551.8768"/>
<polygon fill="none" stroke="#000000" points="322.3194,-548.8612 315.1717,-556.6818 325.6363,-555.0254 322.3194,-548.8612"/>
</g>
<!-- \\__localhost_TESSERACT_ab8c9788e151775fb7c0f90241c3d2f4 -->
<g id="node28" class="node">
<title>\\__localhost_TESSERACT_ab8c9788e151775fb7c0f90241c3d2f4</title>
<polygon fill="none" stroke="#000000" points="842.2814,-430 461.2814,-430 461.2814,-394 842.2814,-394 842.2814,-430"/>
<text text-anchor="middle" x="651.7814" y="-409.2" font-family="Courier,monospace" font-size="11.00" fill="#000000">__localhost_TESSERACT_ab8c9788e151775fb7c0f90241c3d2f4</text>
</g>
<!-- \\__localhost_TESSERACT_ab8c9788e151775fb7c0f90241c3d2f4&#45;&gt;Mustache_Template -->
<g id="edge22" class="edge">
<title>\\__localhost_TESSERACT_ab8c9788e151775fb7c0f90241c3d2f4&#45;&gt;Mustache_Template</title>
<path fill="none" stroke="#000000" d="M486.1753,-430.0955C477.6403,-432.6921 469.2919,-435.6445 461.2814,-439 399.6497,-464.8167 340.5941,-517.4543 308.8158,-548.8308"/>
<polygon fill="none" stroke="#000000" points="306.3029,-546.394 301.7116,-555.9423 311.2552,-551.3412 306.3029,-546.394"/>
</g>
<!-- \\__mini_TESSERACT_ef7032084388eed796ad8da65117c79c -->
<g id="node29" class="node">
<title>\\__mini_TESSERACT_ef7032084388eed796ad8da65117c79c</title>
<polygon fill="none" stroke="#000000" points="825.2814,-376 478.2814,-376 478.2814,-340 825.2814,-340 825.2814,-376"/>
<text text-anchor="middle" x="651.7814" y="-355.2" font-family="Courier,monospace" font-size="11.00" fill="#000000">__mini_TESSERACT_ef7032084388eed796ad8da65117c79c</text>
</g>
<!-- \\__mini_TESSERACT_ef7032084388eed796ad8da65117c79c&#45;&gt;Mustache_Template -->
<g id="edge23" class="edge">
<title>\\__mini_TESSERACT_ef7032084388eed796ad8da65117c79c&#45;&gt;Mustache_Template</title>
<path fill="none" stroke="#000000" d="M481.1221,-376.1126C474.2955,-378.734 467.6516,-381.6837 461.2814,-385 387.6103,-423.3531 328.1988,-504.9227 300.8896,-547.2566"/>
<polygon fill="none" stroke="#000000" points="297.8025,-545.5893 295.4037,-555.9091 303.7144,-549.3377 297.8025,-545.5893"/>
</g>
<!-- \\__localhost_TESSERACT_8308555a6f5a9e31c64bdfcebf9e885a -->
<g id="node30" class="node">
<title>\\__localhost_TESSERACT_8308555a6f5a9e31c64bdfcebf9e885a</title>
<polygon fill="none" stroke="#000000" points="842.2814,-322 461.2814,-322 461.2814,-286 842.2814,-286 842.2814,-322"/>
<text text-anchor="middle" x="651.7814" y="-301.2" font-family="Courier,monospace" font-size="11.00" fill="#000000">__localhost_TESSERACT_8308555a6f5a9e31c64bdfcebf9e885a</text>
</g>
<!-- \\__localhost_TESSERACT_8308555a6f5a9e31c64bdfcebf9e885a&#45;&gt;Mustache_Template -->
<g id="edge24" class="edge">
<title>\\__localhost_TESSERACT_8308555a6f5a9e31c64bdfcebf9e885a&#45;&gt;Mustache_Template</title>
<path fill="none" stroke="#000000" d="M478.2576,-322.1647C472.4008,-324.7943 466.7201,-327.7287 461.2814,-331 374.9964,-382.8995 318.3938,-494.7184 295.7762,-546.5666"/>
<polygon fill="none" stroke="#000000" points="292.5367,-545.2408 291.8278,-555.8119 298.9742,-547.9901 292.5367,-545.2408"/>
</g>
<!-- \\__localhost_TESSERACT_f47b5442208fc5d704641d67609ad62d -->
<g id="node31" class="node">
<title>\\__localhost_TESSERACT_f47b5442208fc5d704641d67609ad62d</title>
<polygon fill="none" stroke="#000000" points="842.2814,-268 461.2814,-268 461.2814,-232 842.2814,-232 842.2814,-268"/>
<text text-anchor="middle" x="651.7814" y="-247.2" font-family="Courier,monospace" font-size="11.00" fill="#000000">__localhost_TESSERACT_f47b5442208fc5d704641d67609ad62d</text>
</g>
<!-- \\__localhost_TESSERACT_f47b5442208fc5d704641d67609ad62d&#45;&gt;Mustache_Template -->
<g id="edge25" class="edge">
<title>\\__localhost_TESSERACT_f47b5442208fc5d704641d67609ad62d&#45;&gt;Mustache_Template</title>
<path fill="none" stroke="#000000" d="M476.4992,-268.2017C471.2372,-270.8364 466.1468,-273.7598 461.2814,-277 361.9204,-343.1715 310.3007,-485.9181 292.237,-546.2162"/>
<polygon fill="none" stroke="#000000" points="288.8752,-545.2426 289.4361,-555.8225 295.5954,-547.202 288.8752,-545.2426"/>
</g>
<!-- \\__localhost_TESSERACT_6ed605dd0ff4498ac909d2519d70229b -->
<g id="node32" class="node">
<title>\\__localhost_TESSERACT_6ed605dd0ff4498ac909d2519d70229b</title>
<polygon fill="none" stroke="#000000" points="842.2814,-214 461.2814,-214 461.2814,-178 842.2814,-178 842.2814,-214"/>
<text text-anchor="middle" x="651.7814" y="-193.2" font-family="Courier,monospace" font-size="11.00" fill="#000000">__localhost_TESSERACT_6ed605dd0ff4498ac909d2519d70229b</text>
</g>
<!-- \\__localhost_TESSERACT_6ed605dd0ff4498ac909d2519d70229b&#45;&gt;Mustache_Template -->
<g id="edge26" class="edge">
<title>\\__localhost_TESSERACT_6ed605dd0ff4498ac909d2519d70229b&#45;&gt;Mustache_Template</title>
<path fill="none" stroke="#000000" d="M475.3094,-214.2378C470.45,-216.8734 465.7586,-219.7856 461.2814,-223 348.7137,-303.8183 303.5712,-477.3774 289.7269,-545.615"/>
<polygon fill="none" stroke="#000000" points="286.2524,-545.1463 287.7682,-555.6321 293.1223,-546.4897 286.2524,-545.1463"/>
</g>
<!-- \\__mini_TESSERACT_8308555a6f5a9e31c64bdfcebf9e885a -->
<g id="node33" class="node">
<title>\\__mini_TESSERACT_8308555a6f5a9e31c64bdfcebf9e885a</title>
<polygon fill="none" stroke="#000000" points="825.2814,-160 478.2814,-160 478.2814,-124 825.2814,-124 825.2814,-160"/>
<text text-anchor="middle" x="651.7814" y="-139.2" font-family="Courier,monospace" font-size="11.00" fill="#000000">__mini_TESSERACT_8308555a6f5a9e31c64bdfcebf9e885a</text>
</g>
<!-- \\__mini_TESSERACT_8308555a6f5a9e31c64bdfcebf9e885a&#45;&gt;Mustache_Template -->
<g id="edge27" class="edge">
<title>\\__mini_TESSERACT_8308555a6f5a9e31c64bdfcebf9e885a&#45;&gt;Mustache_Template</title>
<path fill="none" stroke="#000000" d="M478.1459,-158.2212C472.2488,-161.3793 466.5992,-164.9561 461.2814,-169 334.9929,-265.0364 297.4668,-470.252 287.7102,-545.5435"/>
<polygon fill="none" stroke="#000000" points="284.2104,-545.3288 286.465,-555.6809 291.1582,-546.1823 284.2104,-545.3288"/>
</g>
<!-- \\__localhost_TESSERACT_c49d347b597b4c2f4b20f007c73b23df -->
<g id="node34" class="node">
<title>\\__localhost_TESSERACT_c49d347b597b4c2f4b20f007c73b23df</title>
<polygon fill="none" stroke="#000000" points="842.2814,-106 461.2814,-106 461.2814,-70 842.2814,-70 842.2814,-106"/>
<text text-anchor="middle" x="651.7814" y="-85.2" font-family="Courier,monospace" font-size="11.00" fill="#000000">__localhost_TESSERACT_c49d347b597b4c2f4b20f007c73b23df</text>
</g>
<!-- \\__localhost_TESSERACT_c49d347b597b4c2f4b20f007c73b23df&#45;&gt;Mustache_Template -->
<g id="edge28" class="edge">
<title>\\__localhost_TESSERACT_c49d347b597b4c2f4b20f007c73b23df&#45;&gt;Mustache_Template</title>
<path fill="none" stroke="#000000" d="M474.0191,-106.1795C469.5921,-108.8439 465.3329,-111.7763 461.2814,-115 320.9258,-226.6805 291.9749,-464.1436 286.1044,-545.7598"/>
<polygon fill="none" stroke="#000000" points="282.609,-545.5769 285.4453,-555.7851 289.5939,-546.0363 282.609,-545.5769"/>
</g>
<!-- \\__localhost_TESSERACT_20f031974b0aeac8b950496702c2b4ab -->
<g id="node35" class="node">
<title>\\__localhost_TESSERACT_20f031974b0aeac8b950496702c2b4ab</title>
<polygon fill="none" stroke="#000000" points="842.2814,-52 461.2814,-52 461.2814,-16 842.2814,-16 842.2814,-52"/>
<text text-anchor="middle" x="651.7814" y="-31.2" font-family="Courier,monospace" font-size="11.00" fill="#000000">__localhost_TESSERACT_20f031974b0aeac8b950496702c2b4ab</text>
</g>
<!-- \\__localhost_TESSERACT_20f031974b0aeac8b950496702c2b4ab&#45;&gt;Mustache_Template -->
<g id="edge30" class="edge">
<title>\\__localhost_TESSERACT_20f031974b0aeac8b950496702c2b4ab&#45;&gt;Mustache_Template</title>
<path fill="none" stroke="#000000" d="M473.4412,-52.2532C469.2114,-54.9024 465.1458,-57.8107 461.2814,-61 382.5934,-125.9426 310.5915,-448.3179 290.306,-545.9396"/>
<polygon fill="none" stroke="#000000" points="286.8345,-545.4449 288.2451,-555.9454 293.6906,-546.8571 286.8345,-545.4449"/>
</g>
</g>
</svg>
