<?xml version="1.0" encoding="UTF-8" standalone="no"?>
<!DOCTYPE svg PUBLIC "-//W3C//DTD SVG 1.1//EN"
 "http://www.w3.org/Graphics/SVG/1.1/DTD/svg11.dtd">
<!-- Generated by graphviz version 2.40.1 (20161225.0304)
 -->
<!-- Title: G Pages: 1 -->
<svg width="513pt" height="618pt"
 viewBox="0.00 0.00 513.00 618.00" xmlns="http://www.w3.org/2000/svg" xmlns:xlink="http://www.w3.org/1999/xlink">
<g id="graph0" class="graph" transform="scale(1 1) rotate(0) translate(4 614)">
<title>G</title>
<polygon fill="#ffffff" stroke="transparent" points="-4,4 -4,-614 509,-614 509,4 -4,4"/>
<g id="clust1" class="cluster">
<title>cluster_Global</title>
<path fill="none" stroke="#c0c0c0" d="M20,-8C20,-8 485,-8 485,-8 491,-8 497,-14 497,-20 497,-20 497,-590 497,-590 497,-596 491,-602 485,-602 485,-602 20,-602 20,-602 14,-602 8,-596 8,-590 8,-590 8,-20 8,-20 8,-14 14,-8 20,-8"/>
<text text-anchor="middle" x="252.5" y="-589.2" font-family="Times,serif" font-size="11.00" fill="#c0c0c0">Global</text>
</g>
<g id="clust2" class="cluster">
<title>cluster_\GSC</title>
<path fill="none" stroke="#c0c0c0" d="M28,-16C28,-16 477,-16 477,-16 483,-16 489,-22 489,-28 489,-28 489,-562 489,-562 489,-568 483,-574 477,-574 477,-574 28,-574 28,-574 22,-574 16,-568 16,-562 16,-562 16,-28 16,-28 16,-22 22,-16 28,-16"/>
<text text-anchor="middle" x="252.5" y="-561.2" font-family="Times,serif" font-size="11.00" fill="#c0c0c0">GSC</text>
</g>
<!-- \\GSC\\RSSPresenter -->
<g id="node1" class="node">
<title>\\GSC\\RSSPresenter</title>
<polygon fill="none" stroke="#000000" points="471,-384 373,-384 373,-348 471,-348 471,-384"/>
<text text-anchor="middle" x="422" y="-363.2" font-family="Courier,monospace" font-size="11.00" fill="#000000">RSSPresenter</text>
</g>
<!-- \\GSC\\APresenter -->
<g id="node7" class="node">
<title>\\GSC\\APresenter</title>
<polygon fill="none" stroke="#000000" points="277.5,-384 193.5,-384 193.5,-348 277.5,-348 277.5,-384"/>
<text text-anchor="start" x="201.5" y="-369.2" font-family="Courier,monospace" font-size="11.00" fill="#000000">«abstract»</text>
<text text-anchor="start" x="201.5" y="-357.2" font-family="Courier,monospace" font-size="11.00" fill="#000000">APresenter</text>
</g>
<!-- \\GSC\\RSSPresenter&#45;&gt;\\GSC\\APresenter -->
<g id="edge1" class="edge">
<title>\\GSC\\RSSPresenter&#45;&gt;\\GSC\\APresenter</title>
<path fill="none" stroke="#000000" d="M372.9993,-366C346.7984,-366 314.5302,-366 287.8393,-366"/>
<polygon fill="none" stroke="#000000" points="287.5323,-362.5001 277.5322,-366 287.5322,-369.5001 287.5323,-362.5001"/>
</g>
<!-- \\GSC\\ApiPresenter -->
<g id="node2" class="node">
<title>\\GSC\\ApiPresenter</title>
<polygon fill="none" stroke="#000000" points="471,-330 373,-330 373,-294 471,-294 471,-330"/>
<text text-anchor="middle" x="422" y="-309.2" font-family="Courier,monospace" font-size="11.00" fill="#000000">ApiPresenter</text>
</g>
<!-- \\GSC\\ApiPresenter&#45;&gt;\\GSC\\APresenter -->
<g id="edge2" class="edge">
<title>\\GSC\\ApiPresenter&#45;&gt;\\GSC\\APresenter</title>
<path fill="none" stroke="#000000" d="M372.9993,-326.1879C346.6825,-333.8078 314.2445,-343.2 287.4853,-350.948"/>
<polygon fill="none" stroke="#000000" points="286.1643,-347.6866 277.5322,-353.8298 288.1112,-354.4104 286.1643,-347.6866"/>
</g>
<!-- \\GSC\\LoginPresenter -->
<g id="node3" class="node">
<title>\\GSC\\LoginPresenter</title>
<polygon fill="none" stroke="#000000" points="477.5,-222 366.5,-222 366.5,-186 477.5,-186 477.5,-222"/>
<text text-anchor="middle" x="422" y="-201.2" font-family="Courier,monospace" font-size="11.00" fill="#000000">LoginPresenter</text>
</g>
<!-- \\GSC\\LoginPresenter&#45;&gt;\\GSC\\APresenter -->
<g id="edge3" class="edge">
<title>\\GSC\\LoginPresenter&#45;&gt;\\GSC\\APresenter</title>
<path fill="none" stroke="#000000" d="M377.4589,-222.1066C372.4184,-224.8129 367.4873,-227.7858 363,-231 319.3476,-262.2674 278.5259,-309.9947 255.3298,-339.528"/>
<polygon fill="none" stroke="#000000" points="252.3491,-337.6605 248.9901,-347.7087 257.8822,-341.9484 252.3491,-337.6605"/>
</g>
<!-- \\GSC\\LogoutPresenter -->
<g id="node4" class="node">
<title>\\GSC\\LogoutPresenter</title>
<polygon fill="none" stroke="#000000" points="481,-168 363,-168 363,-132 481,-132 481,-168"/>
<text text-anchor="middle" x="422" y="-147.2" font-family="Courier,monospace" font-size="11.00" fill="#000000">LogoutPresenter</text>
</g>
<!-- \\GSC\\LogoutPresenter&#45;&gt;\\GSC\\APresenter -->
<g id="edge4" class="edge">
<title>\\GSC\\LogoutPresenter&#45;&gt;\\GSC\\APresenter</title>
<path fill="none" stroke="#000000" d="M375.708,-168.1095C371.1966,-170.7618 366.8664,-173.7218 363,-177 308.3348,-223.3483 267.2137,-298.685 247.8251,-338.8155"/>
<polygon fill="none" stroke="#000000" points="244.5978,-337.4527 243.477,-347.9881 250.9232,-340.4511 244.5978,-337.4527"/>
</g>
<!-- \\GSC\\StringFilters -->
<g id="node5" class="node">
<title>\\GSC\\StringFilters</title>
<polygon fill="none" stroke="#000000" points="474,-60 370,-60 370,-24 474,-24 474,-60"/>
<text text-anchor="middle" x="422" y="-39.2" font-family="Courier,monospace" font-size="11.00" fill="#000000">StringFilters</text>
</g>
<!-- \\GSC\\IStringFilters -->
<g id="node12" class="node">
<title>\\GSC\\IStringFilters</title>
<polygon fill="none" stroke="#000000" points="291,-60 180,-60 180,-24 291,-24 291,-60"/>
<text text-anchor="middle" x="235.5" y="-39.2" font-family="Courier,monospace" font-size="11.00" fill="#000000">IStringFilters</text>
</g>
<!-- \\GSC\\StringFilters&#45;&gt;\\GSC\\IStringFilters -->
<g id="edge5" class="edge">
<title>\\GSC\\StringFilters&#45;&gt;\\GSC\\IStringFilters</title>
<path fill="none" stroke="#000000" stroke-dasharray="1,5" d="M369.553,-42C348.3446,-42 323.6285,-42 301.237,-42"/>
<polygon fill="none" stroke="#000000" points="301.1336,-38.5001 291.1335,-42 301.1335,-45.5001 301.1336,-38.5001"/>
</g>
<!-- \\GSC\\CiTester -->
<g id="node6" class="node">
<title>\\GSC\\CiTester</title>
<polygon fill="none" stroke="#000000" points="457.5,-276 386.5,-276 386.5,-240 457.5,-240 457.5,-276"/>
<text text-anchor="middle" x="422" y="-255.2" font-family="Courier,monospace" font-size="11.00" fill="#000000">CiTester</text>
</g>
<!-- \\GSC\\IPresenter -->
<g id="node13" class="node">
<title>\\GSC\\IPresenter</title>
<polygon fill="none" stroke="#000000" points="108,-384 24,-384 24,-348 108,-348 108,-384"/>
<text text-anchor="middle" x="66" y="-363.2" font-family="Courier,monospace" font-size="11.00" fill="#000000">IPresenter</text>
</g>
<!-- \\GSC\\APresenter&#45;&gt;\\GSC\\IPresenter -->
<g id="edge6" class="edge">
<title>\\GSC\\APresenter&#45;&gt;\\GSC\\IPresenter</title>
<path fill="none" stroke="#000000" stroke-dasharray="1,5" d="M193.1652,-366C170.4285,-366 142.2041,-366 118.1259,-366"/>
<polygon fill="none" stroke="#000000" points="118.0886,-362.5001 108.0886,-366 118.0885,-369.5001 118.0886,-362.5001"/>
</g>
<!-- \\GSC\\CorePresenter -->
<g id="node8" class="node">
<title>\\GSC\\CorePresenter</title>
<polygon fill="none" stroke="#000000" points="474,-546 370,-546 370,-510 474,-510 474,-546"/>
<text text-anchor="middle" x="422" y="-525.2" font-family="Courier,monospace" font-size="11.00" fill="#000000">CorePresenter</text>
</g>
<!-- \\GSC\\CorePresenter&#45;&gt;\\GSC\\APresenter -->
<g id="edge7" class="edge">
<title>\\GSC\\CorePresenter&#45;&gt;\\GSC\\APresenter</title>
<path fill="none" stroke="#000000" d="M377.4589,-509.8934C372.4184,-507.1871 367.4873,-504.2142 363,-501 319.3476,-469.7326 278.5259,-422.0053 255.3298,-392.472"/>
<polygon fill="none" stroke="#000000" points="257.8822,-390.0516 248.9901,-384.2913 252.3491,-394.3395 257.8822,-390.0516"/>
</g>
<!-- \\GSC\\MiniPresenter -->
<g id="node9" class="node">
<title>\\GSC\\MiniPresenter</title>
<polygon fill="none" stroke="#000000" points="474,-492 370,-492 370,-456 474,-456 474,-492"/>
<text text-anchor="middle" x="422" y="-471.2" font-family="Courier,monospace" font-size="11.00" fill="#000000">MiniPresenter</text>
</g>
<!-- \\GSC\\MiniPresenter&#45;&gt;\\GSC\\APresenter -->
<g id="edge8" class="edge">
<title>\\GSC\\MiniPresenter&#45;&gt;\\GSC\\APresenter</title>
<path fill="none" stroke="#000000" d="M380.7007,-455.9751C374.697,-453.1031 368.6423,-450.0646 363,-447 330.6357,-429.4211 295.4089,-406.7519 270.2007,-389.868"/>
<polygon fill="none" stroke="#000000" points="271.972,-386.8411 261.7233,-384.1551 268.06,-392.646 271.972,-386.8411"/>
</g>
<!-- \\GSC\\UnitTester -->
<g id="node10" class="node">
<title>\\GSC\\UnitTester</title>
<polygon fill="none" stroke="#000000" points="464,-114 380,-114 380,-78 464,-78 464,-114"/>
<text text-anchor="middle" x="422" y="-93.2" font-family="Courier,monospace" font-size="11.00" fill="#000000">UnitTester</text>
</g>
<!-- \\GSC\\CliPresenter -->
<g id="node11" class="node">
<title>\\GSC\\CliPresenter</title>
<polygon fill="none" stroke="#000000" points="471,-438 373,-438 373,-402 471,-402 471,-438"/>
<text text-anchor="middle" x="422" y="-417.2" font-family="Courier,monospace" font-size="11.00" fill="#000000">CliPresenter</text>
</g>
<!-- \\GSC\\CliPresenter&#45;&gt;\\GSC\\APresenter -->
<g id="edge9" class="edge">
<title>\\GSC\\CliPresenter&#45;&gt;\\GSC\\APresenter</title>
<path fill="none" stroke="#000000" d="M372.9993,-405.8121C346.6825,-398.1922 314.2445,-388.8 287.4853,-381.052"/>
<polygon fill="none" stroke="#000000" points="288.1112,-377.5896 277.5322,-378.1702 286.1643,-384.3134 288.1112,-377.5896"/>
</g>
</g>
</svg>
